<svg width="22" height="16" viewBox="0 0 22 16" fill="none" xmlns="http://www.w3.org/2000/svg">
<path d="M21 10.914C21 13.1702 19.2418 14.9992 17.0738 14.9992H4.92554C2.75757 14.9992 1 13.1702 1 10.914C1 8.87638 2.43338 7.18835 4.30868 6.87948C4.28492 6.73647 4.27181 6.58934 4.27181 6.43788C4.27181 5.00835 5.38555 3.84965 6.75978 3.84965C7.37264 3.84965 7.93425 4.08025 8.36753 4.46393C9.13997 2.65283 10.1302 1 12.9082 1C16.2774 1 17.8742 3.70372 17.8742 6.55673C17.8742 6.67606 17.8694 6.79429 17.8616 6.91127C19.6524 7.29097 21 8.93866 21 10.914Z" stroke="#7FB0A9" stroke-width="1.12266"/>
<path d="M14.7649 8.3249L11.193 11.7727C11.0411 11.9193 10.8393 12 10.6245 12C10.4097 12 10.2078 11.9193 10.056 11.7727L8.23553 10.0155C8.08365 9.86891 8 9.67403 8 9.46673C8 9.25937 8.08365 9.06449 8.23553 8.91789C8.38734 8.77129 8.58923 8.69055 8.80405 8.69055C9.01882 8.69055 9.22077 8.77129 9.37258 8.91795L10.6244 10.1263L13.6277 7.22729C13.7796 7.08069 13.9815 7 14.1963 7C14.411 7 14.6129 7.08069 14.7648 7.22729C15.0784 7.53 15.0784 8.02231 14.7649 8.3249Z" fill="#7FB0A9"/>
</svg>
