<svg width="14" height="16" viewBox="0 0 14 16" fill="none" xmlns="http://www.w3.org/2000/svg">
<path fill-rule="evenodd" clip-rule="evenodd" d="M9.84965 11.4624C9.7075 11.4624 9.56118 11.4008 9.45248 11.2865L5.86129 7.51432C5.63972 7.28131 5.63972 6.90761 5.86129 6.67459C6.08287 6.44158 6.43822 6.44158 6.6598 6.67459L9.28526 9.43559V0.593525C9.28526 0.263789 9.5361 0 9.84965 0C10.1632 0 10.414 0.263789 10.414 0.593525V9.43559L13.0353 6.67459C13.2569 6.44158 13.6122 6.44158 13.8338 6.67459C14.0554 6.90761 14.0554 7.28131 13.8338 7.51432L10.2468 11.2865C10.1381 11.4052 9.99179 11.4624 9.84965 11.4624ZM11.1559 15.9995C11.0921 15.6115 11.0521 15.2153 11.0377 14.8125H3.65808C2.26174 14.8125 1.12878 13.6166 1.12878 12.1526V9.06573C1.12878 8.736 0.87794 8.47221 0.56439 8.47221C0.25084 8.47221 0 8.736 0 9.06573V12.1526C0 14.2761 1.643 15.9995 3.65808 15.9995H11.1559Z" fill="#7FB0A9"/>
</svg>
