<svg width="20" height="17" viewBox="0 0 20 17" fill="none" xmlns="http://www.w3.org/2000/svg">
<path d="M16.5137 9.20284H16.3946V8.60403C16.6772 8.44183 16.8687 8.14318 16.8687 7.79679C16.8687 4.04934 13.7877 1 10 1C6.21272 1 3.13128 4.04934 3.13128 7.79717C3.13128 8.14356 3.32277 8.4422 3.60502 8.60479V9.20359H3.4863C2.11562 9.20359 1 10.4649 1 12.0149V12.9537C1 14.5045 2.11562 15.7658 3.48668 15.7658H4.59349L4.69153 15.8628C4.78383 15.9541 4.90523 16 5.02626 16C5.14766 16 5.26906 15.9541 5.36136 15.8628C5.47051 15.7548 5.50766 15.6077 5.48774 15.4671C5.5697 15.3527 5.61872 15.2136 5.61872 15.0628V9.90586C5.61872 9.5174 5.30047 9.20284 4.9083 9.20284H4.55289V8.60403C4.83477 8.44183 5.02626 8.14318 5.02626 7.79679C5.02626 5.08285 7.25749 2.87486 10 2.87486C12.7425 2.87486 14.9734 5.08285 14.9734 7.79679C14.9734 8.14318 15.1649 8.44183 15.4467 8.60403V9.20284H15.0913C14.6995 9.20284 14.3809 9.5174 14.3809 9.90586V15.062C14.3809 15.2125 14.4303 15.3523 14.5119 15.466C14.4923 15.6066 14.5295 15.7533 14.6383 15.8617C14.7309 15.953 14.8523 15.9989 14.9734 15.9989C15.0944 15.9989 15.2162 15.953 15.3085 15.8617L15.4065 15.7646H16.5133C17.8844 15.7646 19 14.5034 19 12.9526V12.0142C19.0004 10.4649 17.8848 9.20284 16.5137 9.20284Z" stroke="#7FB0A9" stroke-width="1.01333"/>
</svg>
