<svg width="34" height="29" viewBox="0 0 34 29" fill="none" xmlns="http://www.w3.org/2000/svg">
<path d="M27.3901 17.0195H27.9701H28.5501H28.7688C30.4694 17.0195 32.1735 18.7343 32.1729 21.2617V21.2619V23.0652C32.1729 25.5957 30.4686 27.309 28.7681 27.309H26.7363H26.2437L26.1588 27.397L26.0508 27.2394C26.0275 27.2053 26.0135 27.1636 26.0135 27.1188V17.2105C26.0135 17.1446 26.0384 17.094 26.0702 17.061C26.1014 17.0287 26.1319 17.0195 26.1577 17.0195H26.8101H27.3901ZM25.7217 27.8498C25.7219 27.8496 25.7221 27.8494 25.7223 27.8492L25.7217 27.8498ZM27.6797 13.8784L27.4087 13.7152C27.2289 13.6069 27.1011 13.4041 27.1011 13.1576C27.1011 7.34066 22.5249 2.53928 16.8114 2.53928C11.098 2.53928 6.52089 7.34055 6.52089 13.1576C6.52089 13.4041 6.39313 13.6069 6.21337 13.7152L5.94059 13.8795L5.67092 13.7169C5.48973 13.6076 5.36227 13.4045 5.36227 13.1583C5.36227 6.55802 10.5378 1.25649 16.8114 1.25649C23.0856 1.25649 28.2605 6.55802 28.2605 13.1576C28.2605 13.4038 28.1331 13.6061 27.9527 13.7144L27.6797 13.8784ZM5.07191 17.021H6.23194V17.0195H6.81195H7.46438C7.49074 17.0195 7.52102 17.0288 7.55197 17.0609C7.58356 17.0936 7.6085 17.1442 7.6085 17.2105V27.1203C7.6085 27.1661 7.59509 27.2067 7.57064 27.2424L7.46361 27.3989L7.379 27.3112H6.88647H4.85467C3.15409 27.3112 1.44982 25.5979 1.44982 23.0674V21.2634C1.44982 18.7344 3.15402 17.021 4.85397 17.021H5.07191Z" stroke="#4F978D" stroke-width="2.32005"/>
</svg>
