<svg width="16" height="14" viewBox="0 0 16 14" fill="none" xmlns="http://www.w3.org/2000/svg">
<path d="M7.22458 12.5725L7.21355 12.562L7.2019 12.5522C5.11314 10.7948 3.42703 9.35699 2.25831 8.00459C1.09443 6.6578 0.5 5.45846 0.5 4.18478C0.5 2.12556 2.17222 0.5 4.4 0.5C5.61967 0.5 6.84291 1.04947 7.62644 1.93017L8 2.35006L8.37356 1.93017C9.15709 1.04947 10.3803 0.5 11.6 0.5C13.8278 0.5 15.5 2.12556 15.5 4.18478C15.5 5.45846 14.9056 6.6578 13.7417 8.00459C12.573 9.35699 10.8869 10.7948 8.7981 12.5522L8.78645 12.562L8.77542 12.5725L8 13.31L7.22458 12.5725Z" stroke="#7FB0A9"/>
</svg>
