<svg width="18" height="32" viewBox="0 0 18 32" fill="none" xmlns="http://www.w3.org/2000/svg">
<path fill-rule="evenodd" clip-rule="evenodd" d="M0.229004 9.71749C0.229004 4.50451 4.20759 0.268555 9.09039 0.268555C13.9732 0.268555 17.9518 4.50451 17.9457 9.71749V16.1646C17.9457 20.9277 14.6242 24.8743 10.3201 25.5171V29.1424H12.9364C13.6175 29.1424 14.1661 29.7274 14.1661 30.4537C14.1661 31.1801 13.6175 31.765 12.9364 31.765H5.2384C4.55722 31.765 4.00866 31.1801 4.00866 30.4537C4.00866 29.7274 4.55722 29.1424 5.2384 29.1424H7.85462V25.5171C3.55052 24.8808 0.229004 20.9277 0.229004 16.1646V9.71749ZM3.27943 19.0121C4.29216 21.3583 6.51654 22.9846 9.09057 22.9846C11.6646 22.9846 13.889 21.3583 14.9017 19.0121H12.183C11.5018 19.0121 10.9533 18.4272 10.9533 17.7009C10.9533 16.9745 11.5018 16.3896 12.183 16.3896H15.4864C15.4925 16.3124 15.4925 14.2491 15.4925 14.2491H12.189C11.5079 14.2491 10.9593 13.6642 10.9593 12.9378C10.9593 12.2115 11.5079 11.6265 12.189 11.6265H15.4925C15.4925 11.6265 15.4864 9.56321 15.4864 9.48608H12.183C11.5018 9.48608 10.9533 8.90114 10.9533 8.1748C10.9533 7.44845 11.5018 6.86352 12.183 6.86352H14.9017C13.889 4.51735 11.6646 2.89111 9.09057 2.89111C6.51654 2.89111 4.29216 4.52378 3.27943 6.86352H5.99812C6.67931 6.86352 7.22787 7.44845 7.22787 8.1748C7.22787 8.90114 6.67931 9.48608 5.99812 9.48608H2.6947C2.68867 9.56321 2.68867 11.6265 2.68867 11.6265H5.9921C6.67328 11.6265 7.22184 12.2115 7.22184 12.9378C7.22184 13.6642 6.67328 14.2491 5.9921 14.2491H2.68867C2.68867 14.2491 2.6947 16.3124 2.6947 16.3896H5.99812C6.67931 16.3896 7.22787 16.9745 7.22787 17.7009C7.22787 18.4272 6.67931 19.0121 5.99812 19.0121H3.27943Z" fill="#4F978D"/>
</svg>
