<svg width="30" height="32" viewBox="0 0 30 32" fill="none" xmlns="http://www.w3.org/2000/svg">
<path fill-rule="evenodd" clip-rule="evenodd" d="M26.588 0.268555C25.9703 0.268555 25.4697 0.772037 25.4697 1.39314V5.50112C19.7123 -0.104132 10.5265 0.0454439 4.95251 5.83506C2.32564 8.56359 0.860185 12.2146 0.867459 16.0124C0.867459 16.6335 1.36813 17.1369 1.98576 17.1369C2.6034 17.1369 3.104 16.6335 3.104 16.0124C3.10538 9.18053 8.61382 3.64329 15.4076 3.64467C18.8579 3.64533 22.1493 5.10319 24.4789 7.66251L19.525 9.32345C18.9382 9.51975 18.6208 10.1571 18.816 10.7471C19.0112 11.3371 19.645 11.6564 20.2317 11.4601L26.9414 9.21098C27.3994 9.05758 27.7078 8.62585 27.7063 8.14043V1.39307C27.7063 0.772037 27.2056 0.268555 26.588 0.268555Z" fill="#4F978D"/>
<path fill-rule="evenodd" clip-rule="evenodd" d="M28.8249 14.8878C28.2073 14.8878 27.7066 15.3913 27.7066 16.0124C27.7052 22.8442 22.1968 28.3815 15.403 28.3801C11.9527 28.3794 8.66132 26.9216 6.33166 24.3623L11.2856 22.7013C11.8723 22.505 12.1898 21.8676 11.9946 21.2776C11.7994 20.6876 11.1656 20.3684 10.5789 20.5647L3.86919 22.8138C3.41117 22.9672 3.10275 23.3989 3.10425 23.8843V30.6317C3.10425 31.2528 3.60493 31.7563 4.22256 31.7563C4.84019 31.7563 5.34087 31.2528 5.34087 30.6317V26.5236C11.0982 32.1289 20.2841 31.9794 25.858 26.1897C28.4849 23.4612 29.9503 19.8102 29.9431 16.0124C29.9432 15.3913 29.4425 14.8878 28.8249 14.8878Z" fill="#4F978D"/>
</svg>
